<svg width="98" height="98" viewBox="0 0 98 98" fill="none" xmlns="http://www.w3.org/2000/svg">
<g clip-path="url(#clip0_2313_635)">
<path fill-rule="evenodd" clip-rule="evenodd" d="M53.9 78.4C56.4991 78.4 58.9918 79.4325 60.8296 81.2704C62.6675 83.1082 63.7 85.6009 63.7 88.2C63.7 90.7991 62.6675 93.2918 60.8296 95.1296C58.9918 96.9675 56.4991 98 53.9 98C51.3009 98 48.8082 96.9675 46.9704 95.1296C45.1325 93.2918 44.1 90.7991 44.1 88.2C44.1 85.6009 45.1325 83.1082 46.9704 81.2704C48.8082 79.4325 51.3009 78.4 53.9 78.4ZM23.2309 63.7C26.4798 63.7 29.5956 64.9906 31.893 67.2879C34.1903 69.5853 35.4809 72.7011 35.4809 75.95C35.4809 79.1989 34.1903 82.3147 31.893 84.6121C29.5956 86.9094 26.4798 88.2 23.2309 88.2C19.982 88.2 16.8662 86.9094 14.5688 84.6121C12.2715 82.3147 10.9809 79.1989 10.9809 75.95C10.9809 72.7011 12.2715 69.5853 14.5688 67.2879C16.8662 64.9906 19.982 63.7 23.2309 63.7ZM79.9631 66.15C82.5622 66.15 85.0549 67.1825 86.8927 69.0204C88.7306 70.8582 89.7631 73.3509 89.7631 75.95C89.7631 78.5491 88.7306 81.0418 86.8927 82.8796C85.0549 84.7175 82.5622 85.75 79.9631 85.75C77.364 85.75 74.8713 84.7175 73.0335 82.8796C71.1956 81.0418 70.1631 78.5491 70.1631 75.95C70.1631 73.3509 71.1956 70.8582 73.0335 69.0204C74.8713 67.1825 77.364 66.15 79.9631 66.15ZM90.65 45.6631C92.5993 45.6631 94.4688 46.4375 95.8472 47.8159C97.2256 49.1943 98 51.0638 98 53.0131C98 54.9624 97.2256 56.8319 95.8472 58.2103C94.4688 59.5887 92.5993 60.3631 90.65 60.3631C88.7007 60.3631 86.8312 59.5887 85.4528 58.2103C84.0744 56.8319 83.3 54.9624 83.3 53.0131C83.3 51.0638 84.0744 49.1943 85.4528 47.8159C86.8312 46.4375 88.7007 45.6631 90.65 45.6631ZM12.25 29.4C15.4989 29.4 18.6147 30.6906 20.9121 32.9879C23.2094 35.2853 24.5 38.4011 24.5 41.65C24.5 44.8989 23.2094 48.0147 20.9121 50.3121C18.6147 52.6094 15.4989 53.9 12.25 53.9C9.0011 53.9 5.88526 52.6094 3.58794 50.3121C1.29062 48.0147 0 44.8989 0 41.65C0 38.4011 1.29062 35.2853 3.58794 32.9879C5.88526 30.6906 9.0011 29.4 12.25 29.4ZM87.1514 25.5143C88.451 25.5143 89.6973 26.0305 90.6162 26.9495C91.5352 27.8684 92.0514 29.1147 92.0514 30.4143C92.0514 31.7139 91.5352 32.9602 90.6162 33.8791C89.6973 34.7981 88.451 35.3143 87.1514 35.3143C85.8518 35.3143 84.6055 34.7981 83.6866 33.8791C82.7677 32.9602 82.2514 31.7139 82.2514 30.4143C82.2514 29.1147 82.7677 27.8684 83.6866 26.9495C84.6055 26.0305 85.8518 25.5143 87.1514 25.5143ZM39.2 0C43.0987 0 46.8377 1.54875 49.5945 4.30553C52.3513 7.06231 53.9 10.8013 53.9 14.7C53.9 18.5987 52.3513 22.3377 49.5945 25.0945C46.8377 27.8513 43.0987 29.4 39.2 29.4C35.3013 29.4 31.5623 27.8513 28.8055 25.0945C26.0487 22.3377 24.5 18.5987 24.5 14.7C24.5 10.8013 26.0487 7.06231 28.8055 4.30553C31.5623 1.54875 35.3013 0 39.2 0ZM75.95 14.7C76.5998 14.7 77.223 14.9581 77.6824 15.4176C78.1419 15.8771 78.4 16.5002 78.4 17.15C78.4 17.7998 78.1419 18.4229 77.6824 18.8824C77.223 19.3419 76.5998 19.6 75.95 19.6C75.3002 19.6 74.6771 19.3419 74.2176 18.8824C73.7581 18.4229 73.5 17.7998 73.5 17.15C73.5 16.5002 73.7581 15.8771 74.2176 15.4176C74.6771 14.9581 75.3002 14.7 75.95 14.7Z" fill="#FF7900"/>
</g>
<defs>
<clipPath id="clip0_2313_635">
<rect width="98" height="98" fill="white"/>
</clipPath>
</defs>
</svg>
